<svg width="400" height="400" viewBox="0 0 400 400" fill="none" xmlns="http://www.w3.org/2000/svg">
<path d="M165.359 60C180.755 33.3333 219.245 33.3333 234.641 60L338.564 240C353.96 266.667 334.715 300 303.923 300H96.077C65.285 300 46.0399 266.667 61.4359 240L165.359 60Z" fill="#0D3352"/>
<path d="M165.359 107C180.755 80.3333 219.245 80.3333 234.641 107L295.263 212C310.659 238.667 291.414 272 260.622 272H139.378C108.586 272 89.3412 238.667 104.737 212L165.359 107Z" fill="#113C60"/>
<path d="M165.359 152C180.755 125.333 219.245 125.333 234.641 152L256.292 189.5C271.688 216.167 252.443 249.5 221.651 249.5H178.349C147.557 249.5 128.312 216.167 143.708 189.5L165.359 152Z" fill="#11416C"/>
</svg>
