<svg width="45" height="67" viewBox="0 0 45 67" fill="none" xmlns="http://www.w3.org/2000/svg">
<path d="M22.5 46.0625C29.2781 46.0625 34.7727 40.4382 34.7727 33.5V12.5625C34.7727 5.62434 29.2781 0 22.5 0C15.7219 0 10.2273 5.62434 10.2273 12.5625V33.5C10.2273 40.4382 15.7219 46.0625 22.5 46.0625ZM42.9545 25.125H40.9091C39.779 25.125 38.8636 26.062 38.8636 27.2188V33.5C38.8636 43.2883 30.6192 51.1425 20.8649 50.1689C12.3635 49.3196 6.13636 41.4968 6.13636 32.7541V27.2188C6.13636 26.062 5.22102 25.125 4.09091 25.125H2.04545C0.915341 25.125 0 26.062 0 27.2188V32.4741C0 44.2043 8.17798 54.6613 19.4318 56.2499V60.7188H12.2727C11.1426 60.7188 10.2273 61.6557 10.2273 62.8125V64.9062C10.2273 66.063 11.1426 67 12.2727 67H32.7273C33.8574 67 34.7727 66.063 34.7727 64.9062V62.8125C34.7727 61.6557 33.8574 60.7188 32.7273 60.7188H25.5682V56.2996C36.5254 54.7607 45 45.1334 45 33.5V27.2188C45 26.062 44.0847 25.125 42.9545 25.125Z" fill="#11416C"/>
</svg>
