<svg width="64" height="64" viewBox="0 0 64 64" fill="none" xmlns="http://www.w3.org/2000/svg">
<path d="M45.7259 23.774C39.6255 13.2078 24.3745 13.2078 18.2741 23.774C12.1737 34.3402 19.7992 47.5479 32 47.5479C44.2008 47.5479 51.8263 34.3402 45.7259 23.774Z" fill="#0D3352"/>
<path d="M42.2944 25.2797C37.7191 17.355 26.2809 17.355 21.7056 25.2797C17.1303 33.2043 22.8494 43.1101 32 43.1101C41.1506 43.1101 46.8697 33.2043 42.2944 25.2797Z" fill="#113C60"/>
<path d="M39.2061 27.0627C36.0034 21.5154 27.9966 21.5154 24.7939 27.0627C21.5912 32.61 25.5946 39.544 32 39.544C38.4054 39.544 42.4088 32.61 39.2061 27.0627Z" fill="#11416C"/>
</svg>
